<?xml version="1.0" encoding="UTF-8" standalone="no"?>
<svg
   xmlns:dc="http://purl.org/dc/elements/1.1/"
   xmlns:cc="http://creativecommons.org/ns#"
   xmlns:rdf="http://www.w3.org/1999/02/22-rdf-syntax-ns#"
   xmlns:svg="http://www.w3.org/2000/svg"
   xmlns="http://www.w3.org/2000/svg"
   xmlns:sodipodi="http://sodipodi.sourceforge.net/DTD/sodipodi-0.dtd"
   xmlns:inkscape="http://www.inkscape.org/namespaces/inkscape"
   version="1.1"
   x="0px"
   y="0px"
   viewBox="0 0 136.88136 136.88136"
   enable-background="new 0 0 64 64"
   xml:space="preserve"
   id="svg30"
   sodipodi:docname="gear.svg"
   width="136.88136"
   height="136.88136"
   inkscape:version="0.92.4 (5da689c313, 2019-01-14)"><metadata
     id="metadata36"><rdf:RDF><cc:Work
         rdf:about=""><dc:format>image/svg+xml</dc:format><dc:type
           rdf:resource="http://purl.org/dc/dcmitype/StillImage" /><dc:title /></cc:Work></rdf:RDF></metadata><defs
     id="defs34" /><sodipodi:namedview
     pagecolor="#ffffff"
     bordercolor="#666666"
     borderopacity="1"
     objecttolerance="10"
     gridtolerance="10"
     guidetolerance="10"
     inkscape:pageopacity="0"
     inkscape:pageshadow="2"
     inkscape:window-width="1366"
     inkscape:window-height="690"
     id="namedview32"
     showgrid="false"
     showguides="false"
     fit-margin-top="10"
     fit-margin-left="10"
     fit-margin-right="10"
     fit-margin-bottom="10"
     inkscape:zoom="2.95"
     inkscape:cx="-4.440678"
     inkscape:cy="53.059508"
     inkscape:window-x="0"
     inkscape:window-y="0"
     inkscape:window-maximized="1"
     inkscape:current-layer="svg30" /><path
     d="M 133.98939,50.571941 128.55915,34.288856 H 108.3216 l -5.3921,-5.392105 V 8.6592041 L 86.642597,3.2327799 70.84381,19.035382 H 66.374542 L 50.571941,3.2327799 34.288856,8.6592041 V 28.896751 l -5.392105,5.392105 H 8.6592041 L 3.2327799,50.571941 19.035382,66.374542 V 70.84381 L 3.2327799,86.646411 8.6592041,102.9295 H 28.896751 l 5.392105,5.3921 v 20.23755 l 16.283085,5.43024 15.802601,-15.80642 h 4.469268 l 15.802601,15.80642 16.283089,-5.43024 V 108.3216 l 5.3921,-5.3921 h 20.23755 L 133.98939,86.642597 118.18297,70.84381 v -4.469268 z m -8.73262,38.137502 -2.1965,6.593315 h -17.89614 l -9.861372,9.861372 v 17.89614 l -6.593315,2.1965 -14.708164,-14.70053 H 63.217075 l -14.704352,14.70053 -6.597129,-2.1965 V 105.16413 L 32.05422,95.302758 H 14.158081 L 11.957767,88.709443 26.662118,74.001279 V 63.217075 L 11.957767,48.512723 14.158081,41.915594 H 32.05422 L 41.915594,32.05422 V 14.158081 l 6.597129,-2.200314 14.704352,14.704351 h 10.784204 l 14.70435,-14.704351 6.597129,2.200314 V 32.05422 l 9.861372,9.861374 h 17.89614 l 2.1965,6.597129 -14.70053,14.704352 v 10.784204 z"
     id="path4"
     inkscape:connector-curvature="0"
     style="stroke-width:3.8133688" /><path
     d="m 68.611084,40.731441 c -15.931655,0 -28.896592,12.508666 -28.896592,27.879643 0,15.374074 12.964937,27.879648 28.896592,27.879648 15.934865,0 28.896597,-12.505574 28.896597,-27.879648 0,-15.370977 -12.961732,-27.879643 -28.896597,-27.879643 z m 0,49.563809 c -12.393428,0 -22.475127,-9.729996 -22.475127,-21.684166 0,-11.957269 10.081699,-21.684167 22.475127,-21.684167 12.390215,0 22.475126,9.726898 22.475126,21.684167 0,11.95417 -10.084911,21.684166 -22.475126,21.684166 z"
     id="path6"
     inkscape:connector-curvature="0"
     style="stroke-width:3.1537292" /></svg>