<?xml version="1.0" encoding="UTF-8" standalone="no"?>
<svg xmlns:dc="http://purl.org/dc/elements/1.1/" xmlns:cc="http://creativecommons.org/ns#" xmlns:rdf="http://www.w3.org/1999/02/22-rdf-syntax-ns#" xmlns:svg="http://www.w3.org/2000/svg" xmlns="http://www.w3.org/2000/svg" xmlns:sodipodi="http://sodipodi.sourceforge.net/DTD/sodipodi-0.dtd" xmlns:inkscape="http://www.inkscape.org/namespaces/inkscape" version="1.1" x="0px" y="0px" viewBox="0 0 136.88136 136.88136" enable-background="new 0 0 64 64" xml:space="preserve" id="svg30" sodipodi:docname="noun_1316580_cc.svg" width="136.88136" height="136.88136" inkscape:version="0.92.1 r15371"><metadata id="metadata36"><rdf:RDF><cc:Work rdf:about=""><dc:format>image/svg+xml</dc:format><dc:type rdf:resource="http://purl.org/dc/dcmitype/StillImage"/><dc:title/></cc:Work></rdf:RDF></metadata><defs id="defs34"/><sodipodi:namedview pagecolor="#ffffff" bordercolor="#666666" borderopacity="1" objecttolerance="10" gridtolerance="10" guidetolerance="10" inkscape:pageopacity="0" inkscape:pageshadow="2" inkscape:window-width="640" inkscape:window-height="480" id="namedview32" showgrid="false" showguides="false" fit-margin-top="10" fit-margin-left="10" fit-margin-right="10" fit-margin-bottom="10" inkscape:zoom="2.95" inkscape:cx="42" inkscape:cy="93.737474" inkscape:window-x="0" inkscape:window-y="0" inkscape:window-maximized="0" inkscape:current-layer="svg30"/><path d="m 111.42197,76.99128 15.45939,-3.438869 -0.004,-10.230771 -15.45573,-3.431564 c -1.11551,-5.672398 -3.31434,-10.97589 -6.54684,-15.797245 l 8.50312,-13.362827 -7.23569,-7.228381 -13.355521,8.503119 C 87.967169,28.775894 82.663678,26.577064 76.99128,25.459386 L 73.556064,10 H 63.32164 l -3.435216,15.455733 c -5.674225,1.119504 -10.97589,3.316509 -15.789941,6.54353 l -13.359174,-8.501293 -7.235686,7.237513 8.501292,13.357348 c -3.230673,4.821355 -5.427678,10.123021 -6.543529,15.791766 L 10,63.32164 v 10.234424 l 15.457559,3.435216 c 1.115852,5.670572 3.314683,10.974063 6.54353,15.791767 l -8.503119,13.361003 7.237513,7.23751 13.359174,-8.50495 c 4.815877,3.23068 10.117542,5.42768 15.791767,6.54719 l 3.437042,15.45756 10.232598,-0.002 3.435216,-15.45573 c 5.612131,-1.11403 11.025199,-3.36034 15.791767,-6.54719 l 13.364653,8.50495 7.23021,-7.23751 -8.50312,-13.361003 c 3.18684,-4.766568 5.43315,-10.179636 6.54718,-15.791767 z m -2.6974,28.64324 -3.08823,3.09187 -12.950086,-8.24196 -1.000796,0.71407 c -4.967458,3.53201 -10.524801,5.83494 -16.516797,6.84487 l -1.212644,0.20454 -3.327466,14.97725 -4.375746,0.004 -3.329292,-14.97907 -1.212644,-0.20454 C 55.718873,107.03527 50.16153,104.73234 45.194072,101.1985 l -1.002623,-0.71224 -12.946436,8.24196 -3.091877,-3.0937 8.240135,-12.950092 -0.712246,-1.000797 C 32.147191,86.710695 29.844263,81.153352 28.836161,75.166835 L 28.631619,73.954191 13.652542,70.626725 v -4.375746 l 14.980903,-3.329293 0.204542,-1.212644 c 1.006276,-5.98469 3.309204,-11.540207 6.843038,-16.516796 l 0.71042,-1.000797 -8.236483,-12.94461 3.093703,-3.091877 12.94461,8.238309 1.002623,-0.712246 c 4.965632,-3.532008 10.521149,-5.83311 16.514971,-6.844864 l 1.212644,-0.204542 3.327466,-14.979077 h 4.375746 l 3.327466,14.97725 1.212644,0.204543 c 5.990169,1.009928 11.547512,3.312856 16.520449,6.84669 l 1.002623,0.712246 12.942783,-8.240135 3.09005,3.086398 -8.24013,12.948263 0.71224,1.002622 c 3.53566,4.972937 5.83859,10.532106 6.84669,16.52045 l 0.20454,1.212644 14.97725,3.32564 0.005,4.373919 -14.9809,3.331119 -0.20454,1.212644 c -1.00993,5.991996 -3.31286,11.549339 -6.84487,16.516796 l -0.71407,1.000797 z" id="path2" inkscape:connector-curvature="0" style="stroke-width:1.82627118"/><path d="m 99.752097,59.802415 -2.60061,-7.798178 H 87.459466 L 84.877119,49.42189 v -9.692021 l -7.800005,-2.598784 -7.566241,7.568068 h -2.14039 l -7.568068,-7.568068 -7.798178,2.598784 v 9.692021 l -2.582347,2.582347 h -9.692021 l -2.598784,7.798178 7.568068,7.568068 v 2.14039 l -7.568068,7.568068 2.598784,7.798178 h 9.692021 l 2.582347,2.582347 v 9.692021 l 7.798178,2.60061 7.568068,-7.569894 h 2.14039 l 7.568068,7.569894 7.798178,-2.60061 v -9.692021 l 2.582347,-2.582347 h 9.692021 l 2.60061,-7.800005 -7.569894,-7.566241 v -2.14039 z m -4.182161,18.264538 -1.051932,3.157623 h -8.57069 l -4.722738,4.722738 v 8.57069 l -3.157623,1.051932 -7.043928,-7.040275 h -5.164694 l -7.042102,7.040275 -3.159449,-1.051932 v -8.57069 l -4.722738,-4.722738 h -8.57069 l -1.053759,-3.157623 7.042102,-7.043928 v -5.164694 l -7.042102,-7.042102 1.053759,-3.159449 h 8.57069 l 4.722738,-4.722738 v -8.57069 l 3.159449,-1.053759 7.042102,7.042102 h 5.164694 l 7.042102,-7.042102 3.159449,1.053759 v 8.57069 l 4.722738,4.722738 h 8.57069 l 1.051932,3.159449 -7.040275,7.042102 v 5.164694 z" id="path4" inkscape:connector-curvature="0" style="stroke-width:1.82627118"/><path d="m 68.440678,52.004237 c -9.061958,0 -16.436441,7.374483 -16.436441,16.436441 0,9.063784 7.374483,16.436441 16.436441,16.436441 9.063784,0 16.436441,-7.372657 16.436441,-16.436441 0,-9.061958 -7.372657,-16.436441 -16.436441,-16.436441 z m 0,29.220339 c -7.049407,0 -12.783898,-5.736318 -12.783898,-12.783898 0,-7.049407 5.734491,-12.783898 12.783898,-12.783898 7.04758,0 12.783898,5.734491 12.783898,12.783898 0,7.04758 -5.736318,12.783898 -12.783898,12.783898 z" id="path6" inkscape:connector-curvature="0" style="stroke-width:1.82627118"/><path d="m 68.440678,61.135593 c -4.028754,0 -7.305085,3.276331 -7.305085,7.305085 0,4.028754 3.276331,7.305085 7.305085,7.305085 4.028754,0 7.305085,-3.276331 7.305085,-7.305085 0,-4.028754 -3.276331,-7.305085 -7.305085,-7.305085 z m 0,10.957627 c -2.014377,0 -3.652542,-1.638165 -3.652542,-3.652542 0,-2.014377 1.638165,-3.652542 3.652542,-3.652542 2.014377,0 3.652542,1.638165 3.652542,3.652542 0,2.014377 -1.638165,3.652542 -3.652542,3.652542 z" id="path8" inkscape:connector-curvature="0" style="stroke-width:1.82627118"/><rect x="46.525425" y="19.131355" width="3.6525424" height="3.6525424" id="rect10" style="stroke-width:1.82627118"/><rect x="86.703392" y="19.131355" width="3.6525424" height="3.6525424" id="rect12" style="stroke-width:1.82627118"/><rect x="46.525425" y="114.09746" width="3.6525424" height="3.6525424" id="rect14" style="stroke-width:1.82627118"/><rect x="86.703392" y="114.09746" width="3.6525424" height="3.6525424" id="rect16" style="stroke-width:1.82627118"/><rect x="114.09746" y="46.525425" width="3.6525424" height="3.6525424" id="rect18" style="stroke-width:1.82627118"/><rect x="19.131355" y="46.525425" width="3.6525424" height="3.6525424" id="rect20" style="stroke-width:1.82627118"/><rect x="114.09746" y="86.703392" width="3.6525424" height="3.6525424" id="rect22" style="stroke-width:1.82627118"/><rect x="19.131355" y="86.703392" width="3.6525424" height="3.6525424" id="rect24" style="stroke-width:1.82627118"/></svg>